<svg width="215" height="105" viewBox="0 0 215 105" fill="none" xmlns="http://www.w3.org/2000/svg">
<path d="M21.1621 51.9214C16.0654 51.9214 11.5498 50.2944 7.61523 47.0405C3.68066 43.7866 1.71338 39.2876 1.71338 33.5435C1.71338 27.9487 3.62256 23.4663 7.44092 20.0962C11.2759 16.7095 15.8496 15.0161 21.1621 15.0161C23.0713 15.0161 25.0967 15.2319 27.2383 15.6636C29.3965 16.0786 31.4468 16.9087 33.3892 18.1538L32.7915 23.3833C32.7251 23.6821 32.5591 23.8315 32.2935 23.8315H32.2188C32.0195 23.8149 31.8037 23.5825 31.5713 23.1343C30.6084 21.0591 29.1641 19.5317 27.2383 18.5522C25.4453 17.6724 23.5361 17.2324 21.5107 17.2324H20.9878C16.5054 17.4316 13.0024 19.2246 10.479 22.6113C8.20459 25.6494 7.06738 29.0112 7.06738 32.6968C7.06738 33.1118 7.08398 33.5269 7.11719 33.9419C7.34961 37.7603 8.69434 41.2383 11.1514 44.376C13.6084 47.5137 16.9453 49.1821 21.1621 49.3813C21.5605 49.3979 21.9424 49.4062 22.3076 49.4062C24.4326 49.4062 26.1841 49.0825 27.562 48.4351C29.1558 47.6714 30.4922 46.1357 31.5713 43.8281C31.7871 43.3633 32.0527 43.1309 32.3682 43.1309C32.4346 43.1309 32.501 43.1392 32.5674 43.1558C32.833 43.2554 32.9658 43.4463 32.9658 43.7285C32.9658 43.8613 32.9326 44.0107 32.8662 44.1768L30.6997 50.228C29.106 50.8921 27.4873 51.3403 25.8438 51.5728C24.2002 51.8052 22.6396 51.9214 21.1621 51.9214ZM44.5703 47.3643C44.5703 48.4434 44.9854 49.1323 45.8154 49.4312C46.6455 49.7134 47.0605 50.062 47.0605 50.4771C47.0605 50.8257 46.8945 51 46.5625 51H38.1206C37.772 51 37.5977 50.8257 37.5977 50.4771C37.5977 50.062 38.0127 49.7134 38.8428 49.4312C39.6729 49.1323 40.0879 48.4434 40.0879 47.3643V19.6978C40.0879 18.6353 39.6729 17.9546 38.8428 17.6558C38.0127 17.3569 37.5977 16.9917 37.5977 16.5601C37.5977 16.2114 37.772 16.0371 38.1206 16.0371C39.2163 15.9873 40.2954 15.8213 41.3579 15.5391C42.437 15.2568 43.5078 14.9331 44.5703 14.5679V47.3643ZM57.4697 16.1367C59.2793 16.1367 60.1841 17.0498 60.1841 18.876C60.1841 20.7188 59.2793 21.6401 57.4697 21.6401C55.6602 21.6401 54.7554 20.7188 54.7554 18.876C54.7554 17.0498 55.6602 16.1367 57.4697 16.1367ZM59.7109 47.3643C59.7109 48.4434 60.126 49.1323 60.9561 49.4312C61.7861 49.7134 62.2012 50.062 62.2012 50.4771C62.2012 50.8257 62.0352 51 61.7031 51H53.2612C52.9126 51 52.7383 50.8257 52.7383 50.4771C52.7383 50.062 53.1533 49.7134 53.9834 49.4312C54.8135 49.1323 55.2285 48.4434 55.2285 47.3643V31.4268C55.2285 30.3809 54.8135 29.7085 53.9834 29.4097C53.1533 29.1108 52.7383 28.7456 52.7383 28.314C52.7383 27.9653 52.9126 27.791 53.2612 27.791C54.3569 27.7412 55.436 27.5752 56.4985 27.293C57.5776 26.9941 58.6484 26.6621 59.7109 26.2969V47.3643ZM73.7559 29.7583C74.6689 29.4097 75.4741 29.1025 76.1714 28.8369C76.8687 28.5713 77.5327 28.3306 78.1636 28.1147C79.6909 27.5835 81.2764 27.2349 82.9199 27.0688C83.1191 27.0522 83.3267 27.0439 83.5425 27.0439C84.937 27.0439 86.2651 27.5171 87.5269 28.4634C89.5356 30.0073 90.54 33.3193 90.54 38.3994V47.3643C90.54 48.4434 90.9551 49.1323 91.7852 49.4312C92.6152 49.7134 93.0303 50.062 93.0303 50.4771C93.0303 50.8257 92.8643 51 92.5322 51H86.481C86.1987 51 86.0576 50.8921 86.0576 50.6763V38.3994C86.0576 34.7637 85.3022 32.207 83.7915 30.7295C82.8286 29.7832 81.6499 29.3101 80.2554 29.3101C79.4585 29.3101 78.5869 29.4678 77.6406 29.7832C77.2754 29.916 76.8105 30.0903 76.2461 30.3062C75.6982 30.5054 75.2251 30.6797 74.8267 30.8291C74.4282 30.9785 74.0713 31.1113 73.7559 31.2275V47.3643C73.7559 48.4434 74.1709 49.1323 75.001 49.4312C75.8311 49.7134 76.2461 50.062 76.2461 50.4771C76.2461 50.8257 76.0801 51 75.748 51H67.3062C66.9575 51 66.7832 50.8257 66.7832 50.4771C66.7832 50.062 67.1982 49.7134 68.0283 49.4312C68.8584 49.1323 69.2734 48.4434 69.2734 47.3643V31.4268C69.2734 30.3809 68.8584 29.7085 68.0283 29.4097C67.1982 29.1108 66.7832 28.7456 66.7832 28.314C66.7832 27.9653 66.9575 27.791 67.3062 27.791C68.4019 27.7412 69.481 27.5752 70.5435 27.293C71.6226 26.9941 72.6934 26.6621 73.7559 26.2969V29.7583ZM101.945 16.1367C103.755 16.1367 104.66 17.0498 104.66 18.876C104.66 20.7188 103.755 21.6401 101.945 21.6401C100.136 21.6401 99.231 20.7188 99.231 18.876C99.231 17.0498 100.136 16.1367 101.945 16.1367ZM104.187 47.3643C104.187 48.4434 104.602 49.1323 105.432 49.4312C106.262 49.7134 106.677 50.062 106.677 50.4771C106.677 50.8257 106.511 51 106.179 51H97.7368C97.3882 51 97.2139 50.8257 97.2139 50.4771C97.2139 50.062 97.6289 49.7134 98.459 49.4312C99.2891 49.1323 99.7041 48.4434 99.7041 47.3643V31.4268C99.7041 30.3809 99.2891 29.7085 98.459 29.4097C97.6289 29.1108 97.2139 28.7456 97.2139 28.314C97.2139 27.9653 97.3882 27.791 97.7368 27.791C98.8325 27.7412 99.9116 27.5752 100.974 27.293C102.053 26.9941 103.124 26.6621 104.187 26.2969V47.3643ZM123.038 27.1934H123.561C126.267 27.1934 128.757 27.9238 131.031 29.3848L130.608 33.5933C130.575 33.8091 130.467 33.917 130.284 33.917H130.209C130.043 33.9004 129.894 33.7344 129.761 33.4189C129.097 31.9746 128.226 30.9287 127.146 30.2812C126.084 29.6504 124.789 29.335 123.262 29.335H122.664C120.854 29.4346 119.452 29.9575 118.456 30.9038C117.576 31.7671 116.928 32.8047 116.513 34.0166C116.082 35.2285 115.866 36.5815 115.866 38.0757C115.866 38.5737 115.891 39.0801 115.94 39.5947C116.106 42.0684 116.779 44.0938 117.958 45.6709C119.501 47.7461 121.228 48.9248 123.137 49.207C123.453 49.2568 123.776 49.2817 124.108 49.2817C125.603 49.2817 127.254 48.7837 129.064 47.7876C130.01 47.2729 130.649 47.0156 130.981 47.0156C131.064 47.0156 131.131 47.0322 131.181 47.0654C131.214 47.0986 131.23 47.165 131.23 47.2646C131.23 47.4639 131.131 47.7793 130.932 48.2109C130.683 48.709 130.4 49.0991 130.085 49.3813C129.139 50.228 127.977 50.8091 126.599 51.1245C125.221 51.4565 123.909 51.6226 122.664 51.6226C119.576 51.606 116.978 50.751 114.87 49.0576C112.778 47.3477 111.591 44.9072 111.309 41.7363C111.242 41.0059 111.209 40.292 111.209 39.5947C111.209 38.6982 111.267 37.8267 111.383 36.98C111.599 35.519 112.164 34.0581 113.077 32.5972C114.04 31.0532 115.376 29.7915 117.086 28.812C118.812 27.8325 120.796 27.293 123.038 27.1934ZM152.124 48.8335L145.275 51.3486C144.744 51.5312 144.304 51.6226 143.956 51.6226H142.935C140.577 51.5063 138.543 50.5435 136.833 48.7339C135.124 46.9243 134.152 44.6997 133.92 42.0601C133.854 41.3628 133.82 40.6904 133.82 40.043C133.82 39.1797 133.878 38.3413 133.995 37.5278C134.194 36.1167 134.742 34.7056 135.638 33.2944C136.07 32.564 136.809 31.8003 137.854 31.0034C138.22 30.7544 138.626 30.5303 139.075 30.3311C140.403 29.833 141.731 29.335 143.059 28.8369C144.404 28.3389 145.749 27.8408 147.093 27.3428C147.375 27.2432 147.641 27.1934 147.89 27.1934H148.015C149.077 27.2432 150.364 27.5088 151.875 27.9902C152.007 28.04 152.09 28.0732 152.124 28.0898C152.489 28.2393 152.937 28.4053 153.468 28.5879C153.684 28.6543 153.883 28.6875 154.066 28.6875C154.332 28.6875 154.564 28.6128 154.763 28.4634C155.112 28.1646 155.361 27.9155 155.51 27.7163C155.593 27.6001 155.701 27.542 155.834 27.542C155.917 27.542 156 27.5586 156.083 27.5918C156.448 27.7246 156.631 27.8906 156.631 28.0898V47.3643C156.631 48.4434 157.046 49.1323 157.876 49.4312C158.706 49.7134 159.121 50.062 159.121 50.4771C159.121 50.8257 158.947 51 158.598 51H152.547C152.265 51 152.124 50.8921 152.124 50.6763V48.8335ZM152.124 31.8501C151.443 31.2192 150.546 30.6382 149.434 30.1069C148.322 29.5591 147.334 29.2686 146.471 29.2354H146.371C146.039 29.2354 145.707 29.3018 145.375 29.4346C144.777 29.6504 144.18 29.8745 143.582 30.1069C143.001 30.3228 142.412 30.5386 141.814 30.7544C141.399 30.9204 141.067 31.1362 140.818 31.4019C139.789 32.4976 139.1 33.8257 138.751 35.3862C138.469 36.5649 138.328 37.7354 138.328 38.8975C138.328 39.2627 138.344 39.6362 138.377 40.0181C138.56 42.4087 139.208 44.3511 140.32 45.8452C141.432 47.3892 142.827 48.3936 144.503 48.8584C145.134 49.041 145.773 49.1323 146.421 49.1323C146.62 49.1323 146.828 49.124 147.043 49.1074C147.409 49.0742 147.84 48.9663 148.338 48.7837C148.72 48.6509 149.318 48.4351 150.131 48.1362C150.945 47.8208 151.609 47.5635 152.124 47.3643V31.8501ZM170.576 47.3643C170.576 48.4434 170.991 49.1323 171.821 49.4312C172.651 49.7134 173.066 50.062 173.066 50.4771C173.066 50.8257 172.9 51 172.568 51H164.126C163.778 51 163.604 50.8257 163.604 50.4771C163.604 50.062 164.019 49.7134 164.849 49.4312C165.679 49.1323 166.094 48.4434 166.094 47.3643V19.6978C166.094 18.6353 165.679 17.9546 164.849 17.6558C164.019 17.3569 163.604 16.9917 163.604 16.5601C163.604 16.2114 163.778 16.0371 164.126 16.0371C165.222 15.9873 166.301 15.8213 167.364 15.5391C168.443 15.2568 169.514 14.9331 170.576 14.5679V47.3643Z" fill="#3AAC9E"/>
<path d="M117.007 55.0371C118.634 55.0371 120.327 55.3276 122.087 55.9087C123.863 56.4731 125.225 57.5854 126.171 59.2456C126.935 60.5737 127.316 62.1841 127.316 64.0767C127.283 65.8696 126.769 67.4634 125.772 68.8579C125.059 69.9038 123.955 70.7671 122.46 71.4478C124.818 72.2114 126.544 73.5312 127.64 75.4072C128.47 76.8848 128.885 78.6611 128.885 80.7363C128.852 82.7119 128.288 84.4717 127.192 86.0156C126.246 87.3604 124.909 88.3647 123.183 89.0288C121.456 89.6763 119.871 90 118.426 90H102.812C102.464 90 102.29 89.8257 102.29 89.4771C102.29 89.062 102.705 88.7051 103.535 88.4062C104.365 88.1074 104.78 87.4268 104.78 86.3643V58.6729C104.78 57.627 104.365 56.9546 103.535 56.6558C102.705 56.3569 102.29 55.9917 102.29 55.5601C102.29 55.2114 102.464 55.0371 102.812 55.0371H117.007ZM109.262 72.8921V88.1821H114.89C116.102 88.1821 117.322 88.0078 118.551 87.6592C119.796 87.2939 120.867 86.6714 121.763 85.7915C123.141 84.4468 123.83 82.6704 123.83 80.4624C123.83 78.3374 123.108 76.561 121.664 75.1333C120.103 73.6392 118.02 72.8921 115.413 72.8921H109.262ZM109.262 70.7256H116.135C118.094 70.5098 119.671 69.8291 120.867 68.6836C122.112 67.4717 122.734 65.8613 122.734 63.8525C122.734 61.8936 122.079 60.2832 120.767 59.0215C119.356 57.6768 117.48 57.0044 115.139 57.0044H109.262V70.7256ZM144.723 66.1934C147.96 66.3262 150.7 67.5796 152.941 69.9536C155.182 72.311 156.328 75.1333 156.377 78.4204V78.5698C156.377 81.8901 155.207 84.6958 152.866 86.9868C150.476 89.311 147.562 90.5229 144.125 90.6226H143.727C140.54 90.6226 137.792 89.4438 135.484 87.0864C133.094 84.6626 131.898 81.7988 131.898 78.4951V78.4204C131.915 74.7847 133.285 71.73 136.007 69.2563C136.323 68.9575 136.788 68.7002 137.402 68.4844C138.033 68.2686 138.962 67.9365 140.191 67.4883C140.921 67.2227 141.727 66.9321 142.606 66.6167C143.437 66.3345 144.117 66.1934 144.648 66.1934H144.723ZM144.2 67.8618H143.901C141.959 67.8618 140.291 68.7998 138.896 70.6758C137.418 72.668 136.68 75.1167 136.68 78.022C136.68 80.9272 137.402 83.4507 138.846 85.5923C140.307 87.7173 142.075 88.8296 144.15 88.9292H144.499C146.425 88.9292 148.085 87.9912 149.479 86.1152C150.94 84.1396 151.671 81.6992 151.671 78.7939C151.671 75.8887 150.94 73.3735 149.479 71.2485C148.019 69.1069 146.259 67.978 144.2 67.8618ZM172.315 66.1934C175.552 66.3262 178.292 67.5796 180.533 69.9536C182.774 72.311 183.919 75.1333 183.969 78.4204V78.5698C183.969 81.8901 182.799 84.6958 180.458 86.9868C178.067 89.311 175.154 90.5229 171.717 90.6226H171.319C168.131 90.6226 165.384 89.4438 163.076 87.0864C160.686 84.6626 159.49 81.7988 159.49 78.4951V78.4204C159.507 74.7847 160.876 71.73 163.599 69.2563C163.915 68.9575 164.379 68.7002 164.994 68.4844C165.625 68.2686 166.554 67.9365 167.783 67.4883C168.513 67.2227 169.318 66.9321 170.198 66.6167C171.028 66.3345 171.709 66.1934 172.24 66.1934H172.315ZM171.792 67.8618H171.493C169.551 67.8618 167.882 68.7998 166.488 70.6758C165.01 72.668 164.271 75.1167 164.271 78.022C164.271 80.9272 164.994 83.4507 166.438 85.5923C167.899 87.7173 169.667 88.8296 171.742 88.9292H172.091C174.017 88.9292 175.677 87.9912 177.071 86.1152C178.532 84.1396 179.263 81.6992 179.263 78.7939C179.263 75.8887 178.532 73.3735 177.071 71.2485C175.61 69.1069 173.851 67.978 171.792 67.8618ZM195.051 78.9683V86.3643C195.051 87.4434 195.466 88.1323 196.296 88.4312C197.126 88.7134 197.541 89.062 197.541 89.4771C197.541 89.8257 197.375 90 197.043 90H188.601C188.252 90 188.078 89.8257 188.078 89.4771C188.078 89.062 188.493 88.7134 189.323 88.4312C190.153 88.1323 190.568 87.4434 190.568 86.3643V58.6978C190.568 57.6353 190.153 56.9546 189.323 56.6558C188.493 56.3569 188.078 55.9917 188.078 55.5601C188.078 55.2114 188.252 55.0371 188.601 55.0371C189.697 54.9873 190.776 54.8213 191.838 54.5391C192.917 54.2568 193.988 53.9331 195.051 53.5679V76.2788L203.866 69.2314C204.879 68.4014 205.775 67.7456 206.556 67.2642C207.004 66.9985 207.427 66.8657 207.826 66.8657C208.125 66.8657 208.415 66.9404 208.697 67.0898L210.54 68.2354C210.739 68.3682 210.839 68.5176 210.839 68.6836C210.839 68.7666 210.814 68.8496 210.764 68.9326L209.594 71.5474L208.349 70.8999C207.851 70.6509 207.369 70.5264 206.904 70.5264C206.34 70.5264 205.809 70.709 205.311 71.0742C202.903 72.8838 200.778 74.5024 198.936 75.9302L207.602 84.397C209.395 86.1401 210.557 87.1279 211.088 87.3604C211.47 87.543 211.86 87.6343 212.258 87.6343C212.424 87.6343 212.599 87.6177 212.781 87.5845C212.914 87.5513 213.039 87.5347 213.155 87.5347C213.487 87.5347 213.711 87.6592 213.827 87.9082C213.86 88.0078 213.877 88.0908 213.877 88.1572C213.877 88.3232 213.794 88.4395 213.628 88.5059L212.034 89.2778C211.171 89.6597 210.366 89.8506 209.619 89.8506C209.137 89.8506 208.681 89.7593 208.249 89.5767C207.17 89.145 206.182 88.4893 205.286 87.6094L195.798 78.3706C195.665 78.5034 195.416 78.7026 195.051 78.9683Z" fill="#3AAC9E"/>
</svg>
