<svg width="606" height="299" viewBox="0 0 606 299" fill="none" xmlns="http://www.w3.org/2000/svg">
<path d="M59.9922 147.008C45.1328 147.008 31.9609 142.273 20.4766 132.805C9.03906 123.336 3.32031 110.305 3.32031 93.7109C3.32031 77.5391 8.875 64.5547 19.9844 54.7578C31.1406 44.9141 44.4766 39.9922 59.9922 39.9922C65.5234 39.9922 71.4062 40.625 77.6406 41.8906C83.9219 43.1094 90.1562 45.6875 96.3438 49.625L94.5859 65.2344C94.2109 66.875 93.1562 67.6953 91.4219 67.6953H91.1406C89.8281 67.6016 88.7031 66.6406 87.7656 64.8125C84.8594 58.625 81.2969 54.5234 77.0781 52.5078C72.8594 50.4922 67.1641 49.4844 59.9922 49.4844C50.0547 49.4844 41.1719 52.9766 33.3438 59.9609C25.5156 66.8984 21.6016 78.1484 21.6016 93.7109C21.6016 103.648 25.2812 113.234 32.6406 122.469C40 131.656 49.1406 136.508 60.0625 137.023C61.1875 137.07 62.2422 137.094 63.2266 137.094C68.8984 137.094 73.5625 136.25 77.2188 134.562C81.3438 132.594 84.8594 128.492 87.7656 122.258C88.6562 120.57 89.7578 119.609 91.0703 119.375H91.5625C93.2969 119.375 94.3047 120.219 94.5859 121.906L94.7969 123.875L88.3984 141.805C83.2891 143.914 78.3438 145.297 73.5625 145.953C68.7812 146.656 64.2578 147.008 59.9922 147.008ZM127.422 132.734C127.422 135.172 128.594 136.812 130.938 137.656C133.281 138.453 134.453 139.742 134.453 141.523C134.453 143.445 133.398 144.406 131.289 144.406H107.453C105.297 144.406 104.219 143.445 104.219 141.523C104.219 139.742 105.391 138.453 107.734 137.656C110.078 136.812 111.25 135.172 111.25 132.734V54.6172C111.25 52.2266 110.078 50.6094 107.734 49.7656C105.391 48.9219 104.219 47.5859 104.219 45.7578C104.219 43.8359 105.273 42.875 107.383 42.875C110.289 42.7344 113.195 42.2891 116.102 41.5391C119.055 40.7422 122.828 39.5703 127.422 38.0234V132.734ZM162.086 43.1562C168.367 43.1562 171.508 46.2031 171.508 52.2969C171.508 58.4375 168.367 61.5078 162.086 61.5078C155.805 61.5078 152.664 58.4375 152.664 52.2969C152.664 46.2031 155.805 43.1562 162.086 43.1562ZM170.172 132.734C170.172 135.172 171.344 136.812 173.688 137.656C176.031 138.453 177.203 139.742 177.203 141.523C177.203 143.445 176.148 144.406 174.039 144.406H150.203C148.047 144.406 146.969 143.445 146.969 141.523C146.969 139.742 148.141 138.453 150.484 137.656C152.828 136.812 154 135.172 154 132.734V87.7344C154 85.3906 152.828 83.7969 150.484 82.9531C148.141 82.1094 146.969 80.7734 146.969 78.9453C146.969 77.0234 148.023 76.0625 150.133 76.0625C153.039 75.9219 155.945 75.4531 158.852 74.6562C161.805 73.8594 165.578 72.6875 170.172 71.1406V132.734ZM209.828 80.7734C210.766 80.4453 212.219 79.9062 214.188 79.1562C216.156 78.4062 218.031 77.7266 219.812 77.1172C224.312 75.5234 228.953 74.4922 233.734 74.0234C234.391 73.9766 235.047 73.9531 235.703 73.9531C240.109 73.9531 244.258 75.4297 248.148 78.3828C254.195 83.0234 257.219 92.7031 257.219 107.422V132.734C257.219 135.172 258.391 136.812 260.734 137.656C263.078 138.453 264.25 139.742 264.25 141.523C264.25 143.445 263.195 144.406 261.086 144.406H244C242.031 144.406 241.047 143.633 241.047 142.086V107.422C241.047 97.4844 239.055 90.5703 235.07 86.6797C232.68 84.3359 229.797 83.1641 226.422 83.1641C224.406 83.1641 222.18 83.5625 219.742 84.3594C218.711 84.7344 217.398 85.2266 215.805 85.8359C214.258 86.3984 212.898 86.9141 211.727 87.3828C210.648 87.7578 210.016 87.9922 209.828 88.0859V132.734C209.828 135.172 211 136.812 213.344 137.656C215.688 138.453 216.859 139.742 216.859 141.523C216.859 143.445 215.805 144.406 213.695 144.406H189.859C187.703 144.406 186.625 143.445 186.625 141.523C186.625 139.742 187.797 138.453 190.141 137.656C192.484 136.812 193.656 135.172 193.656 132.734V87.7344C193.656 85.3906 192.484 83.7969 190.141 82.9531C187.797 82.1094 186.625 80.7734 186.625 78.9453C186.625 77.0234 187.68 76.0625 189.789 76.0625C192.695 75.9219 195.602 75.4531 198.508 74.6562C201.461 73.8594 205.234 72.6875 209.828 71.1406V80.7734ZM287.664 43.1562C293.945 43.1562 297.086 46.2031 297.086 52.2969C297.086 58.4375 293.945 61.5078 287.664 61.5078C281.383 61.5078 278.242 58.4375 278.242 52.2969C278.242 46.2031 281.383 43.1562 287.664 43.1562ZM295.75 132.734C295.75 135.172 296.922 136.812 299.266 137.656C301.609 138.453 302.781 139.742 302.781 141.523C302.781 143.445 301.727 144.406 299.617 144.406H275.781C273.625 144.406 272.547 143.445 272.547 141.523C272.547 139.742 273.719 138.453 276.062 137.656C278.406 136.812 279.578 135.172 279.578 132.734V87.7344C279.578 85.3906 278.406 83.7969 276.062 82.9531C273.719 82.1094 272.547 80.7734 272.547 78.9453C272.547 77.0234 273.602 76.0625 275.711 76.0625C278.617 75.9219 281.523 75.4531 284.43 74.6562C287.383 73.8594 291.156 72.6875 295.75 71.1406V132.734ZM347.148 74.375H348.695C356.758 74.375 364.398 76.6953 371.617 81.3359L370.352 93.9922C370.117 95.4453 369.227 96.1719 367.68 96.1719H367.398C366.086 96.0312 365.125 95.2344 364.516 93.7812C362.781 89.9844 360.531 87.2656 357.766 85.625C355.094 84.0312 351.789 83.2344 347.852 83.2344H346.234C341.641 83.4688 338.102 84.7812 335.617 87.1719C333.32 89.4219 331.609 92.1641 330.484 95.3984C329.312 98.7266 328.727 102.43 328.727 106.508C328.727 107.867 328.797 109.273 328.938 110.727C329.406 117.477 331.211 122.984 334.352 127.25C338.477 132.734 342.977 135.828 347.852 136.531C348.602 136.672 349.398 136.742 350.242 136.742C354.086 136.742 358.422 135.406 363.25 132.734C366.25 131.141 368.383 130.344 369.648 130.344C370.305 130.344 370.914 130.531 371.477 130.906C371.898 131.328 372.109 131.844 372.109 132.453C372.109 133.156 371.781 134.211 371.125 135.617C370.375 137.211 369.438 138.5 368.312 139.484C365.5 142.016 362.008 143.75 357.836 144.688C353.711 145.672 349.82 146.164 346.164 146.164C336.977 146.117 329.242 143.562 322.961 138.5C316.727 133.438 313.188 126.242 312.344 116.914C312.156 114.852 312.062 112.812 312.062 110.797C312.062 108.219 312.227 105.711 312.555 103.273C313.211 98.9609 314.875 94.6719 317.547 90.4062C320.359 85.8594 324.32 82.1328 329.43 79.2266C334.586 76.2734 340.492 74.6562 347.148 74.375ZM427.586 139.062L410.711 145.25C408.977 145.859 407.5 146.164 406.281 146.164H403.328C396.109 145.789 389.969 142.93 384.906 137.586C379.797 132.148 376.891 125.562 376.188 117.828C376 115.859 375.906 113.938 375.906 112.062C375.906 109.578 376.07 107.164 376.398 104.82C377.008 100.648 378.625 96.5 381.25 92.375C382.516 90.1719 384.719 87.875 387.859 85.4844C389.031 84.6875 390.32 83.9844 391.727 83.375C395.523 81.9688 399.297 80.5625 403.047 79.1562C406.844 77.75 410.641 76.3438 414.438 74.9375C415.469 74.5625 416.453 74.375 417.391 74.375H417.812C421 74.5156 424.844 75.3125 429.344 76.7656C429.812 76.9062 430.094 77.0234 430.188 77.1172C431.125 77.4922 432.32 77.9141 433.773 78.3828C434.148 78.5234 434.5 78.5938 434.828 78.5938C435.109 78.5938 435.344 78.5234 435.531 78.3828C436.422 77.6328 437.031 77.0234 437.359 76.5547C437.969 75.7578 438.789 75.3594 439.82 75.3594C440.336 75.3594 440.805 75.4531 441.227 75.6406C442.961 76.25 443.828 77.1406 443.828 78.3125V132.734C443.828 135.172 445 136.812 447.344 137.656C449.688 138.453 450.859 139.742 450.859 141.523C450.859 143.445 449.781 144.406 447.625 144.406H430.539C428.57 144.406 427.586 143.633 427.586 142.086V139.062ZM427.586 89.4219C426.086 88.0156 423.859 86.6094 420.906 85.2031C418 83.7969 415.469 83.0469 413.312 82.9531H413.102C412.445 82.9531 411.742 83.0938 410.992 83.375C409.305 83.9844 407.617 84.6172 405.93 85.2734C404.289 85.8828 402.625 86.4922 400.938 87.1016C400.047 87.4766 399.344 87.9453 398.828 88.5078C396.109 91.4141 394.281 94.9531 393.344 99.125C392.547 102.406 392.148 105.641 392.148 108.828C392.148 109.812 392.195 110.844 392.289 111.922C392.805 118.438 394.562 123.711 397.562 127.742C400.469 131.82 404.078 134.445 408.391 135.617C409.984 136.086 411.602 136.32 413.242 136.32C413.758 136.32 414.273 136.297 414.789 136.25C415.633 136.156 416.688 135.898 417.953 135.477C419.031 135.102 420.719 134.492 423.016 133.648C425.312 132.758 426.836 132.172 427.586 131.891V89.4219ZM483.203 132.734C483.203 135.172 484.375 136.812 486.719 137.656C489.062 138.453 490.234 139.742 490.234 141.523C490.234 143.445 489.18 144.406 487.07 144.406H463.234C461.078 144.406 460 143.445 460 141.523C460 139.742 461.172 138.453 463.516 137.656C465.859 136.812 467.031 135.172 467.031 132.734V54.6172C467.031 52.2266 465.859 50.6094 463.516 49.7656C461.172 48.9219 460 47.5859 460 45.7578C460 43.8359 461.055 42.875 463.164 42.875C466.07 42.7344 468.977 42.2891 471.883 41.5391C474.836 40.7422 478.609 39.5703 483.203 38.0234V132.734Z" fill="#3AAC9E" />
<path d="M330.578 155.875C335.406 155.875 340.469 156.742 345.766 158.477C351.109 160.164 355.211 163.539 358.07 168.602C360.32 172.539 361.445 177.273 361.445 182.805C361.352 188.102 359.828 192.836 356.875 197.008C354.672 200.195 352.375 202.328 349.984 203.406C354.812 204.953 358.891 208.562 362.219 214.234C364.656 218.594 365.875 223.797 365.875 229.844C365.781 235.656 364.117 240.859 360.883 245.453C358.023 249.484 353.992 252.484 348.789 254.453C343.633 256.422 338.898 257.406 334.586 257.406H290.5C288.344 257.406 287.266 256.445 287.266 254.523C287.266 252.742 288.438 251.43 290.781 250.586C293.125 249.742 294.297 248.125 294.297 245.734V167.547C294.297 165.203 293.125 163.609 290.781 162.766C288.438 161.922 287.266 160.586 287.266 158.758C287.266 156.836 288.344 155.875 290.5 155.875H330.578ZM310.469 209.102V249.461H324.602C327.836 249.461 331.07 248.992 334.305 248.055C337.539 247.117 340.328 245.5 342.672 243.203C346.281 239.688 348.086 234.977 348.086 229.07C348.086 223.398 346.188 218.688 342.391 214.938C338.359 211.047 332.922 209.102 326.078 209.102H310.469ZM310.469 200.172H327.977C332.992 199.609 337.047 197.852 340.141 194.898C343.375 191.758 344.992 187.516 344.992 182.172C344.992 176.969 343.281 172.727 339.859 169.445C336.25 165.977 331.398 164.242 325.305 164.242H310.469V200.172ZM408.906 187.375C418.609 187.75 426.766 191.43 433.375 198.414C439.984 205.398 443.359 213.695 443.5 223.305V223.727C443.5 233.43 440.055 241.656 433.164 248.406C426.086 255.297 417.414 258.883 407.148 259.164H406.023C396.461 259.164 388.234 255.648 381.344 248.617C374.359 241.539 370.867 233.172 370.867 223.516V223.305C370.914 212.711 374.922 203.781 382.891 196.516C383.969 195.531 385.445 194.711 387.32 194.055C389.195 193.398 391.867 192.438 395.336 191.172C397.398 190.422 399.672 189.602 402.156 188.711C404.734 187.82 406.891 187.375 408.625 187.375H408.906ZM407.289 194.898H406.516C401.688 194.898 397.469 197.312 393.859 202.141C389.875 207.531 387.883 214.211 387.883 222.18C387.883 230.148 389.805 236.992 393.648 242.711C397.539 248.383 402.086 251.336 407.289 251.57H408.203C412.984 251.57 417.156 249.156 420.719 244.328C424.703 238.984 426.695 232.328 426.695 224.359C426.695 216.391 424.75 209.57 420.859 203.898C416.969 198.18 412.445 195.18 407.289 194.898ZM486.812 187.375C496.516 187.75 504.672 191.43 511.281 198.414C517.891 205.398 521.266 213.695 521.406 223.305V223.727C521.406 233.43 517.961 241.656 511.07 248.406C503.992 255.297 495.32 258.883 485.055 259.164H483.93C474.367 259.164 466.141 255.648 459.25 248.617C452.266 241.539 448.773 233.172 448.773 223.516V223.305C448.82 212.711 452.828 203.781 460.797 196.516C461.875 195.531 463.352 194.711 465.227 194.055C467.102 193.398 469.773 192.438 473.242 191.172C475.305 190.422 477.578 189.602 480.062 188.711C482.641 187.82 484.797 187.375 486.531 187.375H486.812ZM485.195 194.898H484.422C479.594 194.898 475.375 197.312 471.766 202.141C467.781 207.531 465.789 214.211 465.789 222.18C465.789 230.148 467.711 236.992 471.555 242.711C475.445 248.383 479.992 251.336 485.195 251.57H486.109C490.891 251.57 495.062 249.156 498.625 244.328C502.609 238.984 504.602 232.328 504.602 224.359C504.602 216.391 502.656 209.57 498.766 203.898C494.875 198.18 490.352 195.18 485.195 194.898ZM552.695 225.484V245.734C552.695 248.172 553.867 249.812 556.211 250.656C558.555 251.453 559.727 252.742 559.727 254.523C559.727 256.445 558.672 257.406 556.562 257.406H532.727C530.57 257.406 529.492 256.445 529.492 254.523C529.492 252.742 530.664 251.453 533.008 250.656C535.352 249.812 536.523 248.172 536.523 245.734V167.617C536.523 165.227 535.352 163.609 533.008 162.766C530.664 161.922 529.492 160.586 529.492 158.758C529.492 156.836 530.547 155.875 532.656 155.875C535.562 155.734 538.469 155.289 541.375 154.539C544.328 153.742 548.102 152.57 552.695 151.023V213.883L574.562 196.375C577.516 193.984 580.117 192.086 582.367 190.68C583.961 189.742 585.508 189.273 587.008 189.273C588.18 189.273 589.328 189.578 590.453 190.188L595.727 193.422C596.758 194.125 597.273 194.922 597.273 195.812C597.273 196.234 597.156 196.633 596.922 197.008L592.914 206.008L587.57 203.266C586.445 202.703 585.391 202.422 584.406 202.422C583.281 202.422 582.18 202.82 581.102 203.617C574.305 208.68 568.703 212.945 564.297 216.414L587.711 239.266C592.633 244.047 595.75 246.742 597.062 247.352C597.906 247.727 598.727 247.914 599.523 247.914C599.852 247.914 600.203 247.891 600.578 247.844C601.047 247.703 601.539 247.633 602.055 247.633C603.789 247.633 604.984 248.312 605.641 249.672C605.781 250.141 605.852 250.516 605.852 250.797C605.852 251.828 605.312 252.578 604.234 253.047L599.734 255.156C597.016 256.375 594.461 256.984 592.07 256.984C590.43 256.984 588.883 256.68 587.43 256.07C584.148 254.758 581.172 252.789 578.5 250.164L553.047 225.414C553.234 225.227 553.328 225.109 553.328 225.062C553.281 225.062 553.07 225.203 552.695 225.484Z" fill="#3AAC9E" />
</svg>

