<svg width="721" height="550" viewBox="0 0 721 550" fill="none" xmlns="http://www.w3.org/2000/svg">
<mask id="path-1-inside-1" fill="white">
<path fill-rule="evenodd" clip-rule="evenodd" d="M320.653 57.5166C320.653 57.5166 357.869 37.026 383.284 27.184C402.539 19.7277 413.71 16.3249 433.763 11.1255C436.938 10.3023 439.898 9.51496 442.713 8.76636C458.092 4.67658 469.125 1.74237 487.046 0.419876C515.947 -1.7129 554.001 4.83678 560.894 7.55697C562.019 8.00082 563.19 8.44295 564.394 8.89793C570.573 11.2314 577.647 13.9029 584.01 18.8781C590.182 23.7043 592.975 27.5135 596.443 32.242C598.034 34.4124 599.768 36.7764 602.035 39.5214C605.425 43.6254 609.245 53.2834 609.245 53.2834L713.265 360.843C713.265 360.843 722.656 380.715 720.743 386.715C720.743 386.715 721.404 394.769 717.939 400.097C715.405 403.993 712.978 404.966 710.442 405.984C709.53 406.349 708.605 406.72 707.656 407.234C702.345 410.111 696.666 409.079 690.742 408.003C689.228 407.728 687.699 407.451 686.156 407.234C680.635 406.46 676.543 405.444 672.697 404.488C670.178 403.862 667.764 403.262 665.123 402.774C651.862 400.322 642.58 399.055 629.073 399.055C628.531 399.055 628.001 399.055 627.483 399.055C609.854 399.052 605.639 399.051 587.615 402.774C584.71 403.373 581.803 403.938 578.901 404.502C568.034 406.614 557.235 408.713 546.872 412.587C545.234 413.2 543.703 413.768 542.255 414.306C531.436 418.324 525.284 420.609 513.712 426.579C496.306 435.559 487.494 441.634 473.959 455.41C469.706 459.738 460.872 467.007 460.872 467.007L430.024 475.037L416.937 472.36C416.937 472.36 398.85 468.138 387.023 467.007C373.22 465.688 365.306 465.698 351.501 467.007C340.772 468.025 333.462 469.862 324.972 471.995C321.115 472.964 317.015 473.994 312.24 475.037C307.505 476.07 303.345 476.904 299.44 477.686C289.748 479.628 281.625 481.255 270.175 484.85C257.573 488.807 250.277 491.936 239.038 496.754C237.929 497.23 236.782 497.721 235.588 498.232C219.944 504.921 196.327 516.967 196.327 516.967C196.327 516.967 172.782 529.722 158 538.378C155.867 539.628 154.157 540.834 152.536 541.978C149.698 543.981 147.133 545.791 143.044 547.3L142.606 547.461C138.654 548.921 136.18 549.835 131.826 549.976C126.602 550.145 123.463 549.434 118.739 547.3C113.75 545.045 111.466 542.601 107.882 538.764L107.522 538.378C103.476 534.052 99.1085 525.888 99.1085 525.888L14.42 211.547C14.42 211.547 2.80151 176.282 0.955627 152.083C0.825256 150.373 0.677612 148.804 0.538025 147.32C-0.0315552 141.265 -0.46637 136.643 0.955627 129.78C2.38953 122.859 3.96088 119.023 7.49915 112.829C10.8889 106.895 13.4276 103.734 17.6292 98.503L18.025 98.0101C24.8217 89.5449 27.7659 86.2448 36.05 79.0873C48.7394 68.1235 55.7614 64.9352 70.7256 58.1408C71.1764 57.9361 71.6344 57.7282 72.1 57.5166C83.3116 52.4226 93.9133 48.8906 105.652 45.0267C124.605 38.7883 135.134 36.8245 155.015 34.3606C172.749 32.1629 184.024 32.3029 201.596 32.521L202.87 32.5368C218.634 32.7313 227.541 33.4908 243.066 36.1053C254.45 38.0226 261.735 40.0651 271.205 42.72C273.775 43.4406 276.505 44.2062 279.523 45.0267C295.733 49.4349 320.653 57.5166 320.653 57.5166ZM328.132 77.1439C328.132 77.1439 368.144 51.7551 396.371 40.5663C430.142 27.18 450.495 19.3387 487.046 18.2629C518.839 17.3271 552.435 17.4667 576.786 36.9979C584.515 43.1978 587.068 49.4878 587.068 49.4878L695.504 367.089C686.377 365.172 679.256 364.346 672.134 363.52C665.012 362.694 657.891 361.868 648.764 359.951C630.511 356.119 580.872 359.548 562.764 361.736C514.984 367.508 444.98 414.372 444.98 414.372L435.165 419.278L425.35 424.185C425.35 424.185 375.521 406.406 342.154 405.45C314.906 404.67 299.298 407.597 272.979 414.372C249.832 420.33 236.561 426.579 216.817 435.874C214.451 436.988 211.993 438.146 209.413 439.351C179.278 453.441 135.565 481.282 135.565 481.282L35.5427 127.104C35.5427 127.104 33.0342 115.789 34.2475 111.772C35.5427 107.484 36.05 106.611 41.4575 99.7303C46.865 92.8493 59.9107 84.6082 73.8691 77.1439C98.8483 63.7862 114.967 59.312 143.043 53.9484C168.521 49.0811 183.47 48.1102 209.413 49.4877C250.08 51.6469 310.371 74.4675 310.371 74.4675L319.251 75.8057L328.132 77.1439Z"/>
</mask>
<path fill-rule="evenodd" clip-rule="evenodd" d="M320.653 57.5166C320.653 57.5166 357.869 37.026 383.284 27.184C402.539 19.7277 413.71 16.3249 433.763 11.1255C436.938 10.3023 439.898 9.51496 442.713 8.76636C458.092 4.67658 469.125 1.74237 487.046 0.419876C515.947 -1.7129 554.001 4.83678 560.894 7.55697C562.019 8.00082 563.19 8.44295 564.394 8.89793C570.573 11.2314 577.647 13.9029 584.01 18.8781C590.182 23.7043 592.975 27.5135 596.443 32.242C598.034 34.4124 599.768 36.7764 602.035 39.5214C605.425 43.6254 609.245 53.2834 609.245 53.2834L713.265 360.843C713.265 360.843 722.656 380.715 720.743 386.715C720.743 386.715 721.404 394.769 717.939 400.097C715.405 403.993 712.978 404.966 710.442 405.984C709.53 406.349 708.605 406.72 707.656 407.234C702.345 410.111 696.666 409.079 690.742 408.003C689.228 407.728 687.699 407.451 686.156 407.234C680.635 406.46 676.543 405.444 672.697 404.488C670.178 403.862 667.764 403.262 665.123 402.774C651.862 400.322 642.58 399.055 629.073 399.055C628.531 399.055 628.001 399.055 627.483 399.055C609.854 399.052 605.639 399.051 587.615 402.774C584.71 403.373 581.803 403.938 578.901 404.502C568.034 406.614 557.235 408.713 546.872 412.587C545.234 413.2 543.703 413.768 542.255 414.306C531.436 418.324 525.284 420.609 513.712 426.579C496.306 435.559 487.494 441.634 473.959 455.41C469.706 459.738 460.872 467.007 460.872 467.007L430.024 475.037L416.937 472.36C416.937 472.36 398.85 468.138 387.023 467.007C373.22 465.688 365.306 465.698 351.501 467.007C340.772 468.025 333.462 469.862 324.972 471.995C321.115 472.964 317.015 473.994 312.24 475.037C307.505 476.07 303.345 476.904 299.44 477.686C289.748 479.628 281.625 481.255 270.175 484.85C257.573 488.807 250.277 491.936 239.038 496.754C237.929 497.23 236.782 497.721 235.588 498.232C219.944 504.921 196.327 516.967 196.327 516.967C196.327 516.967 172.782 529.722 158 538.378C155.867 539.628 154.157 540.834 152.536 541.978C149.698 543.981 147.133 545.791 143.044 547.3L142.606 547.461C138.654 548.921 136.18 549.835 131.826 549.976C126.602 550.145 123.463 549.434 118.739 547.3C113.75 545.045 111.466 542.601 107.882 538.764L107.522 538.378C103.476 534.052 99.1085 525.888 99.1085 525.888L14.42 211.547C14.42 211.547 2.80151 176.282 0.955627 152.083C0.825256 150.373 0.677612 148.804 0.538025 147.32C-0.0315552 141.265 -0.46637 136.643 0.955627 129.78C2.38953 122.859 3.96088 119.023 7.49915 112.829C10.8889 106.895 13.4276 103.734 17.6292 98.503L18.025 98.0101C24.8217 89.5449 27.7659 86.2448 36.05 79.0873C48.7394 68.1235 55.7614 64.9352 70.7256 58.1408C71.1764 57.9361 71.6344 57.7282 72.1 57.5166C83.3116 52.4226 93.9133 48.8906 105.652 45.0267C124.605 38.7883 135.134 36.8245 155.015 34.3606C172.749 32.1629 184.024 32.3029 201.596 32.521L202.87 32.5368C218.634 32.7313 227.541 33.4908 243.066 36.1053C254.45 38.0226 261.735 40.0651 271.205 42.72C273.775 43.4406 276.505 44.2062 279.523 45.0267C295.733 49.4349 320.653 57.5166 320.653 57.5166ZM328.132 77.1439C328.132 77.1439 368.144 51.7551 396.371 40.5663C430.142 27.18 450.495 19.3387 487.046 18.2629C518.839 17.3271 552.435 17.4667 576.786 36.9979C584.515 43.1978 587.068 49.4878 587.068 49.4878L695.504 367.089C686.377 365.172 679.256 364.346 672.134 363.52C665.012 362.694 657.891 361.868 648.764 359.951C630.511 356.119 580.872 359.548 562.764 361.736C514.984 367.508 444.98 414.372 444.98 414.372L435.165 419.278L425.35 424.185C425.35 424.185 375.521 406.406 342.154 405.45C314.906 404.67 299.298 407.597 272.979 414.372C249.832 420.33 236.561 426.579 216.817 435.874C214.451 436.988 211.993 438.146 209.413 439.351C179.278 453.441 135.565 481.282 135.565 481.282L35.5427 127.104C35.5427 127.104 33.0342 115.789 34.2475 111.772C35.5427 107.484 36.05 106.611 41.4575 99.7303C46.865 92.8493 59.9107 84.6082 73.8691 77.1439C98.8483 63.7862 114.967 59.312 143.043 53.9484C168.521 49.0811 183.47 48.1102 209.413 49.4877C250.08 51.6469 310.371 74.4675 310.371 74.4675L319.251 75.8057L328.132 77.1439Z" fill="white" fill-opacity="0.7"/>
<path d="M319.725 75.6458L435.639 419.118L434.691 419.438L318.777 75.9656L319.725 75.6458ZM383.284 27.184L382.923 26.2515L383.284 27.184ZM320.653 57.5166L321.136 58.3926L320.757 58.6014L320.345 58.4679L320.653 57.5166ZM433.763 11.1255L434.014 12.0935V12.0935L433.763 11.1255ZM442.713 8.76636L442.456 7.79995L442.713 8.76636ZM487.046 0.419876L486.972 -0.577412L487.046 0.419876ZM560.894 7.55697L560.527 8.48717V8.48716L560.894 7.55697ZM564.394 8.89793L564.748 7.96242V7.96242L564.394 8.89793ZM584.01 18.8781L584.626 18.0903V18.0903L584.01 18.8781ZM596.443 32.242L595.636 32.8333L596.443 32.242ZM602.035 39.5214L601.264 40.1582L602.035 39.5214ZM609.245 53.2834L610.175 52.9156L610.184 52.9391L610.192 52.963L609.245 53.2834ZM713.265 360.843L712.361 361.27L712.336 361.218L712.317 361.164L713.265 360.843ZM720.743 386.715L719.746 386.797L719.73 386.6L719.79 386.411L720.743 386.715ZM717.939 400.097L718.777 400.642H718.777L717.939 400.097ZM710.442 405.984L710.814 406.912H710.814L710.442 405.984ZM707.656 407.234L708.132 408.114L708.132 408.114L707.656 407.234ZM690.742 408.003L690.92 407.019L690.742 408.003ZM686.156 407.234L686.295 406.244H686.295L686.156 407.234ZM672.697 404.488L672.456 405.458L672.697 404.488ZM665.123 402.774L664.941 403.757L665.123 402.774ZM627.483 399.055L627.484 398.055L627.483 399.055ZM587.615 402.774L587.413 401.794L587.615 402.774ZM578.901 404.502L578.711 403.521L578.901 404.502ZM546.872 412.587L546.522 411.65L546.872 412.587ZM542.255 414.306L542.603 415.243L542.255 414.306ZM513.712 426.579L513.254 425.69L513.712 426.579ZM473.959 455.41L474.672 456.111L473.959 455.41ZM460.872 467.007L461.507 467.78L461.337 467.92L461.124 467.975L460.872 467.007ZM430.024 475.037L430.276 476.004L430.051 476.063L429.823 476.016L430.024 475.037ZM416.937 472.36L416.736 473.34L416.723 473.337L416.709 473.334L416.937 472.36ZM387.023 467.007L387.119 466.012L387.023 467.007ZM351.501 467.007L351.407 466.012L351.501 467.007ZM324.972 471.995L325.216 472.965L324.972 471.995ZM312.24 475.037L312.454 476.014L312.24 475.037ZM299.44 477.686L299.244 476.705L299.44 477.686ZM270.175 484.85L269.875 483.896L270.175 484.85ZM239.038 496.754L238.644 495.835L239.038 496.754ZM235.588 498.232L235.194 497.313L235.588 498.232ZM196.327 516.967L195.85 516.088L195.861 516.082L195.872 516.076L196.327 516.967ZM158 538.378L158.505 539.241L158 538.378ZM152.536 541.978L151.96 541.161L152.536 541.978ZM143.044 547.3L142.697 546.362L142.697 546.362L143.044 547.3ZM142.606 547.461L142.259 546.523H142.259L142.606 547.461ZM131.826 549.976L131.794 548.977L131.826 549.976ZM118.739 547.3L118.327 548.211L118.739 547.3ZM107.882 538.764L108.612 538.081L108.612 538.081L107.882 538.764ZM107.522 538.378L108.252 537.695L108.252 537.696L107.522 538.378ZM99.1085 525.888L98.2268 526.36L98.1727 526.259L98.1429 526.149L99.1085 525.888ZM14.42 211.547L15.3698 211.234L15.3784 211.26L15.3856 211.287L14.42 211.547ZM0.955627 152.083L-0.0415039 152.159V152.159L0.955627 152.083ZM0.538025 147.32L-0.457581 147.414V147.414L0.538025 147.32ZM0.955627 129.78L1.93481 129.983L0.955627 129.78ZM7.49915 112.829L6.63086 112.333V112.333L7.49915 112.829ZM17.6292 98.503L18.4089 99.1291L18.4089 99.1292L17.6292 98.503ZM18.025 98.0101L18.8048 98.6362L18.8047 98.6362L18.025 98.0101ZM36.05 79.0873L35.3962 78.3306L36.05 79.0873ZM70.7256 58.1408L70.3121 57.2303L70.3122 57.2303L70.7256 58.1408ZM72.1 57.5166L72.5136 58.4271L72.1 57.5166ZM105.652 45.0267L105.339 44.0769L105.652 45.0267ZM155.015 34.3606L155.138 35.353L155.015 34.3606ZM201.596 32.521L201.584 33.5209L201.596 32.521ZM202.87 32.5368L202.858 33.5367H202.858L202.87 32.5368ZM243.066 36.1053L242.9 37.0915L243.066 36.1053ZM271.205 42.72L271.475 41.7572V41.7572L271.205 42.72ZM279.523 45.0267L279.26 45.9917L279.523 45.0267ZM396.371 40.5663L396.003 39.6367L396.371 40.5663ZM328.132 77.1439L328.667 77.9883L328.352 78.1884L327.983 78.1328L328.132 77.1439ZM487.046 18.2629L487.075 19.2625L487.046 18.2629ZM576.786 36.9979L577.411 36.2178L576.786 36.9979ZM587.068 49.4878L587.995 49.1117L588.005 49.1379L588.015 49.1647L587.068 49.4878ZM695.504 367.089L696.45 366.765L697.018 368.428L695.298 368.067L695.504 367.089ZM672.134 363.52L672.019 364.513H672.019L672.134 363.52ZM648.764 359.951L648.97 358.973L648.764 359.951ZM562.764 361.736L562.644 360.743L562.764 361.736ZM444.98 414.372L445.537 415.203L445.484 415.238L445.427 415.266L444.98 414.372ZM435.165 419.278L434.718 418.384L435.165 419.278ZM425.35 424.185L425.797 425.08L425.415 425.27L425.014 425.127L425.35 424.185ZM342.154 405.45L342.182 404.451L342.154 405.45ZM272.979 414.372L272.73 413.403L272.979 414.372ZM216.817 435.874L216.391 434.97L216.817 435.874ZM209.413 439.351L209.837 440.257L209.413 439.351ZM135.565 481.282L136.102 482.125L134.968 482.848L134.603 481.554L135.565 481.282ZM35.5427 127.104L34.5804 127.376L34.5726 127.348L34.5664 127.32L35.5427 127.104ZM34.2475 111.772L33.2902 111.483L34.2475 111.772ZM41.4575 99.7303L42.2438 100.348L41.4575 99.7303ZM73.8691 77.1439L74.3406 78.0258L73.8691 77.1439ZM143.043 53.9484L142.856 52.9661L143.043 53.9484ZM209.413 49.4877L209.36 50.4863L209.413 49.4877ZM310.371 74.4675L310.222 75.4564L310.116 75.4405L310.017 75.4028L310.371 74.4675ZM319.251 75.8057L319.4 74.8169L319.251 75.8057ZM383.645 28.1165C370.987 33.0183 355.367 40.5822 342.892 46.9323C336.658 50.1051 331.218 52.9709 327.336 55.0433C325.396 56.0795 323.845 56.9173 322.779 57.4958C322.247 57.785 321.835 58.0094 321.557 58.1615C321.418 58.2375 321.313 58.2954 321.242 58.3342C321.207 58.3536 321.18 58.3683 321.162 58.3781C321.153 58.383 321.147 58.3866 321.142 58.3891C321.14 58.3903 321.138 58.3912 321.137 58.3918C321.137 58.3921 321.136 58.3923 321.136 58.3924C321.136 58.3926 321.136 58.3926 320.653 57.5166C320.171 56.6406 320.171 56.6405 320.172 56.6404C320.172 56.6402 320.172 56.6399 320.173 56.6396C320.174 56.639 320.176 56.638 320.178 56.6367C320.183 56.6342 320.19 56.6304 320.199 56.6254C320.217 56.6154 320.244 56.6005 320.28 56.5809C320.351 56.5416 320.458 56.4832 320.598 56.4068C320.877 56.2538 321.29 56.0284 321.825 55.7382C322.894 55.1576 324.449 54.3176 326.394 53.279C330.285 51.2019 335.737 48.3299 341.984 45.1499C354.471 38.7941 370.166 31.1917 382.923 26.2515L383.645 28.1165ZM434.014 12.0935C413.991 17.2853 402.857 20.6768 383.645 28.1165L382.923 26.2515C402.221 18.7785 413.43 15.3646 433.512 10.1575L434.014 12.0935ZM442.97 9.73276C440.156 10.4813 437.192 11.2694 434.014 12.0935L433.512 10.1575C436.683 9.33518 439.641 8.54863 442.456 7.79995L442.97 9.73276ZM487.119 1.41716C469.298 2.73234 458.341 5.64503 442.97 9.73277L442.456 7.79995C457.842 3.70812 468.952 0.752412 486.972 -0.577412L487.119 1.41716ZM560.527 8.48716C558.901 7.84532 555.314 6.94018 550.322 5.97616C545.358 5.01769 539.075 4.01406 532.101 3.16116C518.146 1.45424 501.479 0.357498 487.119 1.41716L486.972 -0.577412C501.514 -1.65053 518.324 -0.53882 532.344 1.17595C539.359 2.0339 545.688 3.04443 550.701 4.01243C555.685 4.97488 559.441 5.90852 561.261 6.62677L560.527 8.48716ZM564.041 9.83344C562.838 9.37898 561.66 8.9342 560.527 8.48717L561.261 6.62677C562.378 7.06743 563.542 7.50692 564.748 7.96242L564.041 9.83344ZM583.394 19.6659C577.168 14.7976 570.233 12.172 564.041 9.83344L564.748 7.96242C570.913 10.2908 578.126 13.0083 584.626 18.0903L583.394 19.6659ZM595.636 32.8333C592.182 28.1226 589.454 24.4047 583.394 19.6659L584.626 18.0903C590.91 23.004 593.769 26.9045 597.249 31.6507L595.636 32.8333ZM601.264 40.1582C598.976 37.3887 597.228 35.0038 595.636 32.8333L597.249 31.6507C598.84 33.821 600.559 36.1641 602.806 38.8845L601.264 40.1582ZM609.245 53.2834C608.315 53.6512 608.315 53.6513 608.315 53.6513C608.315 53.6512 608.315 53.6512 608.315 53.6511C608.315 53.6509 608.315 53.6505 608.315 53.65C608.314 53.6491 608.314 53.6475 608.313 53.6454C608.311 53.6411 608.308 53.6345 608.305 53.6257C608.298 53.6082 608.287 53.5816 608.273 53.5466C608.245 53.4765 608.203 53.3725 608.148 53.2383C608.039 52.9699 607.878 52.5808 607.675 52.1006C607.267 51.1397 606.689 49.8166 606.007 48.3675C604.627 45.4386 602.87 42.1029 601.264 40.1582L602.806 38.8845C604.59 41.0439 606.438 44.5893 607.816 47.5154C608.512 48.9938 609.101 50.3417 609.516 51.3199C609.723 51.8092 609.888 52.2067 610 52.4825C610.056 52.6204 610.1 52.7279 610.129 52.8013C610.144 52.8381 610.155 52.8662 610.163 52.8854C610.167 52.8951 610.17 52.9024 610.172 52.9075C610.173 52.91 610.173 52.9119 610.174 52.9133C610.174 52.914 610.174 52.9145 610.175 52.9149C610.175 52.9151 610.175 52.9153 610.175 52.9154C610.175 52.9155 610.175 52.9156 609.245 53.2834ZM712.317 361.164L608.298 53.6038L610.192 52.963L714.212 360.523L712.317 361.164ZM719.79 386.411C719.975 385.832 720.043 385.008 719.973 383.947C719.904 382.898 719.705 381.685 719.406 380.362C718.808 377.716 717.83 374.716 716.783 371.875C715.737 369.039 714.631 366.386 713.785 364.441C713.362 363.468 713.006 362.674 712.755 362.124C712.629 361.848 712.53 361.634 712.463 361.489C712.429 361.417 712.403 361.362 712.386 361.325C712.378 361.306 712.371 361.293 712.367 361.283C712.365 361.279 712.363 361.276 712.362 361.273C712.361 361.272 712.361 361.271 712.361 361.271C712.361 361.271 712.361 361.271 712.361 361.27C712.361 361.27 712.361 361.27 713.265 360.843C714.169 360.416 714.169 360.416 714.169 360.416C714.169 360.416 714.169 360.417 714.169 360.417C714.17 360.418 714.17 360.419 714.171 360.42C714.172 360.423 714.174 360.427 714.176 360.432C714.181 360.442 714.188 360.457 714.197 360.476C714.215 360.515 714.242 360.572 714.277 360.646C714.346 360.795 714.447 361.014 714.574 361.294C714.83 361.854 715.191 362.659 715.619 363.643C716.475 365.611 717.596 368.301 718.659 371.183C719.72 374.061 720.732 377.153 721.357 379.921C721.669 381.305 721.89 382.628 721.969 383.815C722.046 384.989 721.989 386.098 721.696 387.019L719.79 386.411ZM717.1 399.552C718.705 397.084 719.384 393.925 719.645 391.309C719.775 390.012 719.8 388.876 719.792 388.066C719.788 387.661 719.777 387.339 719.766 387.121C719.761 387.011 719.755 386.928 719.752 386.873C719.75 386.846 719.749 386.825 719.748 386.813C719.747 386.806 719.747 386.802 719.747 386.799C719.746 386.798 719.746 386.797 719.746 386.797C719.746 386.796 719.746 386.796 719.746 386.796C719.746 386.796 719.746 386.797 719.746 386.797C719.746 386.797 719.746 386.797 720.743 386.715C721.74 386.633 721.74 386.634 721.74 386.634C721.74 386.634 721.74 386.634 721.74 386.635C721.74 386.635 721.74 386.636 721.74 386.637C721.74 386.638 721.74 386.64 721.74 386.643C721.741 386.648 721.741 386.655 721.742 386.664C721.743 386.682 721.745 386.708 721.747 386.741C721.752 386.806 721.758 386.901 721.763 387.023C721.775 387.265 721.788 387.614 721.792 388.047C721.8 388.914 721.774 390.124 721.635 391.508C721.361 394.25 720.638 397.782 718.777 400.642L717.1 399.552ZM710.069 405.055C711.347 404.543 712.487 404.082 713.623 403.297C714.744 402.522 715.896 401.403 717.1 399.552L718.777 400.642C717.447 402.687 716.119 404.003 714.76 404.942C713.414 405.872 712.073 406.407 710.814 406.912L710.069 405.055ZM707.18 406.355C708.187 405.809 709.164 405.419 710.069 405.055L710.814 406.912C709.897 407.279 709.024 407.631 708.132 408.114L707.18 406.355ZM690.92 407.019C696.913 408.108 702.228 409.037 707.18 406.355L708.132 408.114C702.462 411.185 696.419 410.051 690.563 408.987L690.92 407.019ZM686.295 406.244C687.861 406.464 689.41 406.745 690.92 407.019L690.563 408.987C689.047 408.712 687.537 408.438 686.017 408.225L686.295 406.244ZM672.938 403.517C676.781 404.472 680.829 405.478 686.295 406.244L686.017 408.225C680.44 407.443 676.305 406.415 672.456 405.458L672.938 403.517ZM665.304 401.79C667.98 402.285 670.423 402.892 672.938 403.517L672.456 405.458C669.933 404.831 667.548 404.239 664.941 403.757L665.304 401.79ZM629.073 398.055C642.662 398.055 652.01 399.332 665.304 401.79L664.941 403.757C651.714 401.312 642.497 400.055 629.073 400.055V398.055ZM627.484 398.055C628.002 398.055 628.531 398.055 629.073 398.055V400.055C628.531 400.055 628.001 400.055 627.483 400.055L627.484 398.055ZM587.413 401.794C605.525 398.054 609.812 398.052 627.484 398.055L627.483 400.055C609.896 400.052 605.754 400.048 587.817 403.753L587.413 401.794ZM578.711 403.521C581.614 402.957 584.515 402.393 587.413 401.794L587.817 403.753C584.906 404.354 581.993 404.92 579.092 405.484L578.711 403.521ZM546.522 411.65C556.975 407.742 567.857 405.63 578.711 403.521L579.092 405.484C568.211 407.599 557.494 409.684 547.222 413.524L546.522 411.65ZM541.907 413.369C543.355 412.831 544.885 412.263 546.522 411.65L547.222 413.524C545.583 414.137 544.051 414.706 542.603 415.243L541.907 413.369ZM513.254 425.69C524.88 419.692 531.078 417.391 541.907 413.369L542.603 415.243C531.795 419.258 525.688 421.526 514.171 427.468L513.254 425.69ZM473.245 454.709C486.866 440.846 495.768 434.712 513.254 425.69L514.171 427.468C496.844 436.407 488.122 442.422 474.672 456.111L473.245 454.709ZM460.872 467.007C460.236 466.235 460.236 466.235 460.236 466.235C460.236 466.235 460.236 466.235 460.237 466.235C460.237 466.235 460.237 466.234 460.238 466.234C460.239 466.233 460.24 466.232 460.242 466.23C460.246 466.227 460.253 466.222 460.261 466.215C460.278 466.201 460.302 466.181 460.335 466.154C460.4 466.1 460.497 466.02 460.621 465.917C460.87 465.71 461.231 465.411 461.677 465.037C462.569 464.29 463.802 463.249 465.168 462.074C467.908 459.715 471.151 456.84 473.245 454.709L474.672 456.111C472.514 458.307 469.213 461.231 466.473 463.589C465.099 464.772 463.858 465.819 462.961 466.571C462.512 466.946 462.149 467.248 461.898 467.456C461.772 467.56 461.675 467.641 461.609 467.696C461.576 467.723 461.55 467.744 461.533 467.758C461.525 467.765 461.518 467.77 461.514 467.774C461.512 467.776 461.51 467.777 461.509 467.778C461.508 467.779 461.508 467.779 461.508 467.779C461.507 467.779 461.507 467.779 461.507 467.779C461.507 467.78 461.507 467.78 460.872 467.007ZM429.772 474.069L460.62 466.04L461.124 467.975L430.276 476.004L429.772 474.069ZM417.137 471.38L430.224 474.057L429.823 476.016L416.736 473.34L417.137 471.38ZM387.119 466.012C393.085 466.582 400.604 467.929 406.61 469.127C409.618 469.727 412.255 470.292 414.141 470.706C415.083 470.913 415.838 471.083 416.358 471.201C416.618 471.261 416.819 471.307 416.955 471.338C417.023 471.354 417.075 471.366 417.11 471.374C417.128 471.378 417.141 471.381 417.15 471.383C417.155 471.384 417.158 471.385 417.16 471.386C417.161 471.386 417.162 471.386 417.163 471.386C417.163 471.386 417.164 471.386 417.164 471.386C417.164 471.386 417.164 471.386 416.937 472.36C416.709 473.334 416.709 473.334 416.709 473.334C416.709 473.334 416.709 473.334 416.709 473.334C416.708 473.334 416.707 473.334 416.706 473.333C416.704 473.333 416.701 473.332 416.697 473.331C416.688 473.329 416.675 473.326 416.658 473.322C416.624 473.314 416.573 473.302 416.506 473.287C416.372 473.256 416.173 473.21 415.915 473.152C415.399 473.035 414.649 472.866 413.711 472.66C411.835 472.247 409.211 471.685 406.219 471.088C400.225 469.893 392.788 468.563 386.928 468.003L387.119 466.012ZM351.407 466.012C365.273 464.697 373.252 464.686 387.119 466.012L386.928 468.003C373.189 466.689 365.338 466.699 351.596 468.003L351.407 466.012ZM324.729 471.025C333.223 468.891 340.596 467.037 351.407 466.012L351.596 468.003C340.948 469.013 333.701 470.833 325.216 472.965L324.729 471.025ZM312.027 474.06C316.785 473.021 320.871 471.994 324.729 471.025L325.216 472.965C321.36 473.934 317.246 474.967 312.454 476.014L312.027 474.06ZM299.244 476.705C303.149 475.923 307.302 475.091 312.027 474.06L312.454 476.014C307.709 477.049 303.541 477.884 299.637 478.667L299.244 476.705ZM269.875 483.896C281.38 480.284 289.548 478.648 299.244 476.705L299.637 478.667C289.948 480.607 281.87 482.226 270.474 485.804L269.875 483.896ZM238.644 495.835C249.887 491.014 257.223 487.869 269.875 483.896L270.474 485.804C257.924 489.745 250.666 492.857 239.432 497.673L238.644 495.835ZM235.194 497.313C236.388 496.802 237.535 496.311 238.644 495.835L239.432 497.673C238.323 498.149 237.176 498.641 235.981 499.152L235.194 497.313ZM196.327 516.967C195.872 516.076 195.872 516.076 195.872 516.076C195.873 516.076 195.873 516.076 195.873 516.076C195.874 516.075 195.875 516.075 195.877 516.074C195.88 516.072 195.884 516.07 195.89 516.067C195.901 516.061 195.918 516.053 195.941 516.041C195.986 516.018 196.054 515.984 196.143 515.939C196.32 515.849 196.582 515.716 196.92 515.544C197.597 515.201 198.582 514.704 199.813 514.087C202.273 512.852 205.718 511.135 209.651 509.21C217.514 505.361 227.348 500.668 235.194 497.313L235.981 499.152C228.184 502.486 218.387 507.16 210.53 511.006C206.604 512.928 203.166 514.641 200.71 515.874C199.482 516.49 198.499 516.987 197.824 517.329C197.486 517.5 197.225 517.632 197.049 517.722C196.961 517.766 196.893 517.801 196.849 517.823C196.826 517.835 196.809 517.844 196.798 517.849C196.792 517.852 196.788 517.854 196.785 517.856C196.784 517.856 196.783 517.857 196.782 517.857C196.782 517.858 196.781 517.858 196.781 517.858C196.781 517.858 196.781 517.858 196.327 516.967ZM157.495 537.515C164.897 533.181 174.488 527.823 182.223 523.551C186.092 521.415 189.498 519.549 191.938 518.218C193.157 517.552 194.135 517.019 194.808 516.653C195.145 516.47 195.405 516.329 195.582 516.233C195.67 516.186 195.737 516.149 195.782 516.125C195.804 516.113 195.822 516.103 195.833 516.097C195.839 516.094 195.843 516.092 195.846 516.09C195.847 516.089 195.848 516.089 195.849 516.088C195.849 516.088 195.85 516.088 195.85 516.088C195.85 516.088 195.85 516.088 196.327 516.967C196.803 517.846 196.803 517.846 196.803 517.846C196.802 517.847 196.802 517.847 196.802 517.847C196.801 517.847 196.8 517.848 196.799 517.849C196.796 517.85 196.792 517.852 196.786 517.856C196.775 517.862 196.758 517.871 196.735 517.883C196.69 517.907 196.623 517.944 196.535 517.991C196.36 518.087 196.1 518.228 195.764 518.411C195.091 518.776 194.115 519.308 192.896 519.973C190.459 521.303 187.055 523.167 183.19 525.302C175.458 529.572 165.885 534.92 158.505 539.241L157.495 537.515ZM151.96 541.161C153.579 540.018 155.32 538.789 157.495 537.515L158.505 539.241C156.413 540.467 154.734 541.651 153.113 542.795L151.96 541.161ZM142.697 546.362C146.654 544.902 149.127 543.16 151.96 541.161L153.113 542.795C150.269 544.802 147.612 546.68 143.39 548.238L142.697 546.362ZM142.259 546.523L142.697 546.362L143.39 548.238L142.952 548.399L142.259 546.523ZM131.794 548.977C135.975 548.841 138.318 547.979 142.259 546.523L142.952 548.399C138.99 549.863 136.386 550.829 131.858 550.976L131.794 548.977ZM119.151 546.388C123.748 548.466 126.736 549.14 131.794 548.977L131.858 550.976C126.469 551.15 123.178 550.403 118.327 548.211L119.151 546.388ZM108.612 538.081C112.188 541.909 114.357 544.222 119.151 546.388L118.327 548.211C113.143 545.869 110.744 543.293 107.151 539.446L108.612 538.081ZM108.252 537.696L108.612 538.081L107.151 539.446L106.791 539.061L108.252 537.696ZM99.1085 525.888C99.9902 525.417 99.9902 525.417 99.9902 525.417C99.9902 525.417 99.9902 525.417 99.9903 525.417C99.9904 525.417 99.9905 525.417 99.9907 525.418C99.9911 525.418 99.9919 525.42 99.9928 525.421C99.9948 525.425 99.9977 525.43 100.002 525.438C100.01 525.453 100.022 525.475 100.038 525.505C100.07 525.564 100.118 525.652 100.18 525.766C100.306 525.994 100.49 526.326 100.724 526.738C101.192 527.563 101.858 528.707 102.648 529.985C104.24 532.556 106.3 535.608 108.252 537.695L106.791 539.061C104.698 536.822 102.552 533.629 100.948 531.037C100.141 529.733 99.4619 528.566 98.9845 527.725C98.7457 527.304 98.5571 526.965 98.4277 526.729C98.3631 526.612 98.3132 526.52 98.2794 526.458C98.2625 526.426 98.2495 526.402 98.2407 526.386C98.2363 526.378 98.2329 526.372 98.2306 526.367C98.2294 526.365 98.2285 526.363 98.2279 526.362C98.2276 526.362 98.2274 526.361 98.2272 526.361C98.2271 526.361 98.227 526.361 98.2269 526.36C98.2269 526.36 98.2268 526.36 99.1085 525.888ZM15.3856 211.287L100.074 525.628L98.1429 526.149L13.4544 211.807L15.3856 211.287ZM1.95276 152.007C2.86841 164.012 6.21454 178.805 9.34668 190.634C10.9106 196.54 12.4172 201.693 13.5327 205.368C14.0903 207.206 14.5501 208.674 14.8702 209.682C15.0303 210.186 15.1554 210.575 15.2404 210.837C15.2829 210.968 15.3154 211.068 15.3372 211.135C15.348 211.168 15.3563 211.193 15.3617 211.21C15.3644 211.218 15.3665 211.224 15.3679 211.228C15.3685 211.23 15.369 211.232 15.3693 211.233C15.3695 211.233 15.3696 211.234 15.3697 211.234C15.3698 211.234 15.3698 211.234 14.42 211.547C13.4702 211.86 13.4702 211.86 13.47 211.859C13.4699 211.859 13.4698 211.859 13.4696 211.858C13.4692 211.857 13.4686 211.855 13.4679 211.853C13.4664 211.848 13.4642 211.842 13.4614 211.833C13.4557 211.816 13.4472 211.79 13.436 211.756C13.4138 211.687 13.3807 211.586 13.3377 211.453C13.2516 211.187 13.1253 210.795 12.9641 210.287C12.6416 209.272 12.1793 207.796 11.6188 205.949C10.4982 202.256 8.98474 197.08 7.41333 191.146C4.27478 179.293 0.888733 164.354 -0.0415039 152.159L1.95276 152.007ZM1.53363 147.227C1.67316 148.709 1.82159 150.287 1.95276 152.007L-0.0415039 152.159C-0.171082 150.46 -0.317932 148.898 -0.457581 147.414L1.53363 147.227ZM1.93481 129.983C0.545471 136.688 0.964966 141.182 1.53363 147.227L-0.457581 147.414C-1.02808 141.349 -1.47821 136.597 -0.0235596 129.577L1.93481 129.983ZM8.36743 113.325C4.87402 119.44 3.3446 123.178 1.93481 129.983L-0.0235596 129.577C1.43445 122.54 3.04773 118.605 6.63086 112.333L8.36743 113.325ZM18.4089 99.1292C14.2112 104.356 11.7154 107.465 8.36743 113.325L6.63086 112.333C10.0624 106.326 12.6439 103.113 16.8495 97.8768L18.4089 99.1292ZM18.8047 98.6362L18.4089 99.1291L16.8495 97.8769L17.2453 97.384L18.8047 98.6362ZM36.7038 79.844C28.476 86.9528 25.5733 90.206 18.8048 98.6362L17.2452 97.384C24.0701 88.8837 27.0558 85.5368 35.3962 78.3306L36.7038 79.844ZM71.139 59.0513C56.1986 65.835 49.2824 68.976 36.7038 79.844L35.3962 78.3306C48.1965 67.2711 55.3242 64.0354 70.3121 57.2303L71.139 59.0513ZM72.5136 58.4271C72.0479 58.6387 71.5898 58.8467 71.139 59.0513L70.3122 57.2303C70.763 57.0256 71.2209 56.8177 71.6863 56.6062L72.5136 58.4271ZM105.965 45.9766C94.2229 49.8415 83.6696 53.3584 72.5136 58.4271L71.6863 56.6062C82.9537 51.4869 93.6036 47.9397 105.339 44.0769L105.965 45.9766ZM155.138 35.353C135.303 37.8111 124.841 39.7635 105.965 45.9766L105.339 44.0769C124.369 37.8132 134.964 35.8378 154.892 33.3682L155.138 35.353ZM201.584 33.5209C184.015 33.3028 172.799 33.1643 155.138 35.353L154.892 33.3682C172.699 31.1615 184.033 31.3029 201.609 31.5211L201.584 33.5209ZM202.858 33.5367L201.584 33.5209L201.609 31.5211L202.882 31.5369L202.858 33.5367ZM242.9 37.0915C227.427 34.4858 218.572 33.7306 202.858 33.5367L202.882 31.5369C218.696 31.732 227.654 32.4958 243.232 35.1192L242.9 37.0915ZM270.935 43.6829C261.47 41.0291 254.228 38.9992 242.9 37.0915L243.232 35.1192C254.673 37.0459 262.001 39.101 271.475 41.7572L270.935 43.6829ZM279.26 45.9917C276.239 45.17 273.504 44.4034 270.935 43.6829L271.475 41.7572C274.045 42.4778 276.772 43.2424 279.785 44.0618L279.26 45.9917ZM320.653 57.5166C320.345 58.4679 320.345 58.4678 320.345 58.4678C320.344 58.4677 320.344 58.4676 320.344 58.4675C320.343 58.4673 320.342 58.4669 320.34 58.4664C320.337 58.4655 320.333 58.464 320.327 58.4621C320.315 58.4582 320.297 58.4524 320.273 58.4447C320.226 58.4293 320.155 58.4064 320.062 58.3763C319.876 58.3162 319.601 58.2273 319.244 58.1126C318.532 57.8833 317.496 57.5506 316.202 57.1376C313.614 56.3116 309.995 55.1644 305.87 53.8795C297.616 51.3088 287.347 48.1908 279.26 45.9917L279.785 44.0618C287.909 46.2709 298.206 49.3979 306.464 51.97C310.595 53.2566 314.219 54.4053 316.81 55.2323C318.106 55.6459 319.144 55.9791 319.857 56.2089C320.214 56.3238 320.49 56.4129 320.677 56.4733C320.77 56.5034 320.842 56.5265 320.889 56.5419C320.913 56.5497 320.931 56.5555 320.943 56.5595C320.95 56.5614 320.954 56.5629 320.957 56.5639C320.959 56.5644 320.96 56.5648 320.961 56.565C320.961 56.5651 320.961 56.5652 320.962 56.5653C320.962 56.5654 320.962 56.5654 320.653 57.5166ZM396.74 41.4959C382.696 47.0628 365.687 56.1774 352.163 63.9188C345.407 67.7861 339.531 71.3046 335.345 73.856C333.252 75.1316 331.582 76.1654 330.435 76.8799C329.862 77.2371 329.419 77.5146 329.12 77.7025C328.971 77.7965 328.857 77.8681 328.781 77.9161C328.743 77.9402 328.715 77.9583 328.696 77.9704C328.686 77.9764 328.679 77.9809 328.674 77.9839C328.672 77.9854 328.67 77.9865 328.669 77.9873C328.668 77.9876 328.668 77.9879 328.668 77.9881C328.668 77.9882 328.667 77.9883 328.132 77.1439C327.596 76.2996 327.596 76.2994 327.596 76.2992C327.597 76.299 327.597 76.2987 327.598 76.2983C327.599 76.2975 327.601 76.2963 327.604 76.2947C327.609 76.2915 327.616 76.2868 327.626 76.2806C327.645 76.2682 327.675 76.2497 327.713 76.2254C327.79 76.1766 327.905 76.1043 328.055 76.0096C328.357 75.8202 328.801 75.5413 329.377 75.1824C330.529 74.4648 332.205 73.4276 334.304 72.1482C338.502 69.5896 344.394 66.0615 351.17 62.183C364.709 54.4328 381.82 45.2586 396.003 39.6367L396.74 41.4959ZM487.075 19.2625C450.71 20.3328 430.494 28.1163 396.74 41.4959L396.003 39.6367C429.79 26.2437 450.281 18.3446 487.016 17.2633L487.075 19.2625ZM576.16 37.778C552.14 18.5117 518.93 18.3249 487.075 19.2625L487.016 17.2633C518.748 16.3294 552.73 16.4217 577.411 36.2178L576.16 37.778ZM587.068 49.4878C586.142 49.8639 586.142 49.8642 586.142 49.8644C586.142 49.8645 586.142 49.8647 586.142 49.8649C586.142 49.8651 586.142 49.8653 586.142 49.8653C586.142 49.8654 586.142 49.8651 586.142 49.8645C586.141 49.8631 586.14 49.8603 586.138 49.856C586.135 49.8474 586.129 49.8329 586.12 49.8127C586.102 49.7722 586.074 49.7089 586.035 49.6242C585.957 49.4548 585.835 49.2002 585.663 48.8726C585.319 48.2174 584.778 47.271 584 46.1321C582.443 43.8542 579.937 40.8079 576.16 37.778L577.411 36.2178C581.363 39.3878 583.999 42.5864 585.651 45.0035C586.477 46.2121 587.058 47.2257 587.434 47.9436C587.622 48.3026 587.76 48.5878 587.851 48.7866C587.897 48.886 587.932 48.9639 587.955 49.0186C587.967 49.0459 587.976 49.0675 587.983 49.0831C587.986 49.0909 587.989 49.0972 587.991 49.1019C587.992 49.1043 587.993 49.1063 587.993 49.108C587.994 49.1088 587.994 49.1095 587.994 49.1101C587.994 49.1104 587.994 49.1108 587.994 49.111C587.995 49.1114 587.995 49.1117 587.068 49.4878ZM694.557 367.412L586.122 49.8109L588.015 49.1647L696.45 366.765L694.557 367.412ZM672.249 362.527C679.373 363.353 686.534 364.183 695.709 366.11L695.298 368.067C686.221 366.161 679.139 365.339 672.019 364.513L672.249 362.527ZM648.97 358.973C658.047 360.879 665.129 361.701 672.249 362.527L672.019 364.513C664.896 363.687 657.734 362.857 648.559 360.93L648.97 358.973ZM562.644 360.743C571.729 359.645 588.694 358.239 605.671 357.587C622.608 356.936 639.704 357.027 648.97 358.973L648.559 360.93C639.572 359.043 622.721 358.933 605.748 359.585C588.816 360.236 571.906 361.638 562.884 362.728L562.644 360.743ZM444.98 414.372C444.424 413.541 444.424 413.54 444.425 413.54C444.426 413.54 444.426 413.539 444.428 413.538C444.43 413.537 444.433 413.534 444.438 413.532C444.446 413.526 444.459 413.517 444.477 413.506C444.511 413.483 444.562 413.449 444.63 413.404C444.765 413.314 444.965 413.181 445.229 413.008C445.756 412.662 446.534 412.154 447.54 411.506C449.553 410.21 452.48 408.353 456.142 406.107C463.464 401.615 473.727 395.565 485.486 389.335C508.969 376.892 538.556 363.653 562.644 360.743L562.884 362.728C539.192 365.591 509.887 378.669 486.423 391.102C474.709 397.308 464.484 403.336 457.188 407.811C453.54 410.049 450.625 411.898 448.623 413.187C447.622 413.832 446.849 414.337 446.327 414.68C446.066 414.851 445.868 414.982 445.735 415.07C445.669 415.114 445.619 415.148 445.586 415.17C445.569 415.181 445.557 415.189 445.549 415.195C445.544 415.197 445.541 415.199 445.539 415.201C445.538 415.201 445.538 415.202 445.537 415.202C445.537 415.203 445.537 415.203 444.98 414.372ZM434.718 418.384L444.533 413.477L445.427 415.266L435.612 420.173L434.718 418.384ZM424.903 423.291L434.718 418.384L435.612 420.173L425.797 425.08L424.903 423.291ZM342.182 404.451C358.992 404.932 379.887 409.644 396.529 414.212C404.861 416.499 412.147 418.756 417.351 420.441C419.953 421.284 422.035 421.984 423.467 422.473C424.183 422.718 424.737 422.91 425.112 423.041C425.3 423.107 425.443 423.157 425.539 423.191C425.587 423.208 425.623 423.221 425.648 423.23C425.66 423.234 425.67 423.238 425.676 423.24C425.679 423.241 425.681 423.242 425.683 423.242C425.684 423.243 425.685 423.243 425.685 423.243C425.685 423.243 425.686 423.243 425.35 424.185C425.014 425.127 425.014 425.127 425.013 425.127C425.013 425.127 425.012 425.127 425.012 425.126C425.01 425.126 425.008 425.125 425.005 425.124C424.999 425.122 424.991 425.119 424.979 425.115C424.955 425.106 424.92 425.094 424.873 425.077C424.778 425.044 424.637 424.994 424.452 424.929C424.081 424.799 423.532 424.609 422.82 424.366C421.397 423.879 419.325 423.183 416.734 422.344C411.552 420.665 404.296 418.418 396 416.141C379.385 411.58 358.682 406.924 342.125 406.45L342.182 404.451ZM272.73 413.403C299.101 406.615 314.808 403.666 342.182 404.451L342.125 406.45C315.004 405.673 299.496 408.579 273.228 415.34L272.73 413.403ZM216.391 434.97C236.142 425.67 249.486 419.386 272.73 413.403L273.228 415.34C250.179 421.273 236.979 427.487 217.243 436.779L216.391 434.97ZM208.99 438.446C211.568 437.24 214.025 436.083 216.391 434.97L217.243 436.779C214.877 437.893 212.418 439.051 209.837 440.257L208.99 438.446ZM135.565 481.282C135.028 480.438 135.028 480.438 135.029 480.438C135.029 480.438 135.029 480.438 135.03 480.437C135.031 480.436 135.033 480.435 135.036 480.433C135.042 480.43 135.05 480.425 135.06 480.418C135.082 480.404 135.113 480.384 135.155 480.357C135.239 480.304 135.364 480.225 135.529 480.121C135.857 479.913 136.342 479.607 136.97 479.212C138.226 478.422 140.053 477.278 142.339 475.861C146.912 473.029 153.324 469.105 160.678 464.74C175.378 456.016 193.875 445.512 208.99 438.446L209.837 440.257C194.816 447.28 176.389 457.742 161.699 466.46C154.358 470.817 147.958 474.734 143.393 477.562C141.11 478.975 139.287 480.117 138.035 480.905C137.409 481.298 136.925 481.604 136.598 481.811C136.435 481.914 136.311 481.993 136.228 482.046C136.186 482.072 136.155 482.092 136.134 482.105C136.123 482.112 136.115 482.117 136.11 482.12C136.107 482.122 136.105 482.123 136.104 482.124C136.104 482.125 136.103 482.125 136.103 482.125C136.102 482.125 136.102 482.125 135.565 481.282ZM36.5051 126.832L136.527 481.01L134.603 481.554L34.5804 127.376L36.5051 126.832ZM35.2048 112.061C34.9525 112.897 34.8734 114.216 34.9372 115.823C34.9999 117.401 35.1948 119.155 35.4301 120.803C35.6649 122.448 35.9375 123.971 36.1517 125.084C36.2587 125.64 36.3509 126.093 36.4162 126.405C36.4489 126.562 36.4747 126.683 36.4924 126.765C36.5012 126.806 36.508 126.837 36.5125 126.857C36.5147 126.868 36.5164 126.875 36.5175 126.88C36.5181 126.883 36.5184 126.885 36.5187 126.886C36.5189 126.886 36.5189 126.887 36.519 126.887C36.519 126.887 36.519 126.887 36.519 126.887C36.519 126.887 36.519 126.887 35.5427 127.104C34.5664 127.32 34.5664 127.32 34.5663 127.32C34.5663 127.32 34.5663 127.32 34.5662 127.319C34.5662 127.319 34.566 127.318 34.5658 127.317C34.5655 127.316 34.5649 127.314 34.5643 127.311C34.563 127.305 34.5611 127.296 34.5587 127.285C34.5538 127.262 34.5466 127.229 34.5373 127.186C34.5188 127.101 34.492 126.975 34.4584 126.814C34.3912 126.492 34.2969 126.03 34.1877 125.462C33.9695 124.328 33.6908 122.772 33.4501 121.086C33.2099 119.403 33.0052 117.575 32.9388 115.902C32.8735 114.258 32.9359 112.656 33.2902 111.483L35.2048 112.061ZM42.2438 100.348C39.5283 103.804 38.094 105.688 37.1688 107.236C36.2685 108.743 35.846 109.938 35.2048 112.061L33.2902 111.483C33.9442 109.318 34.423 107.932 35.452 106.21C36.4561 104.53 37.9792 102.538 40.6713 99.1124L42.2438 100.348ZM74.3406 78.0258C67.3788 81.7486 60.6608 85.6567 55.018 89.4835C49.3569 93.3226 44.849 97.0331 42.2438 100.348L40.6713 99.1124C43.4735 95.5465 48.1922 91.6959 53.8954 87.8282C59.6169 83.9481 66.4009 80.0035 73.3975 76.2621L74.3406 78.0258ZM143.231 54.9306C115.216 60.2825 99.2023 64.7309 74.3406 78.0258L73.3975 76.2621C98.4942 62.8415 114.718 58.3416 142.856 52.9661L143.231 54.9306ZM209.36 50.4863C183.496 49.113 168.628 50.0787 143.231 54.9306L142.856 52.9661C168.414 48.0834 183.444 47.1074 209.466 48.4891L209.36 50.4863ZM310.371 74.4675C310.017 75.4028 310.017 75.4027 310.016 75.4026C310.016 75.4024 310.015 75.4022 310.014 75.4019C310.013 75.4012 310.01 75.4002 310.006 75.3989C309.999 75.3962 309.989 75.3922 309.974 75.3868C309.946 75.376 309.902 75.3598 309.845 75.3383C309.731 75.2954 309.56 75.2316 309.336 75.1482C308.886 74.9812 308.221 74.7358 307.359 74.4225C305.635 73.796 303.127 72.8979 299.988 71.8132C293.711 69.6437 284.918 66.7284 274.858 63.7461C254.715 57.7749 229.57 51.5593 209.36 50.4863L209.466 48.4891C229.924 49.5753 255.257 55.8495 275.426 61.8285C285.522 64.8212 294.343 67.7461 300.642 69.9229C303.791 71.0114 306.31 71.9131 308.042 72.5429C308.909 72.8578 309.578 73.1048 310.032 73.2733C310.259 73.3575 310.431 73.4221 310.548 73.4657C310.606 73.4875 310.65 73.504 310.679 73.5152C310.694 73.5208 310.705 73.525 310.713 73.5279C310.717 73.5293 310.72 73.5304 310.722 73.5311C310.723 73.5315 310.723 73.5318 310.724 73.532C310.724 73.5322 310.725 73.5323 310.371 74.4675ZM319.102 76.7946L310.222 75.4564L310.52 73.4787L319.4 74.8169L319.102 76.7946ZM327.983 78.1328L319.102 76.7946L319.4 74.8169L328.281 76.1551L327.983 78.1328Z" fill="white" fill-opacity="0.7" mask="url(#path-1-inside-1)"/>
<path d="M328 76L426 424" stroke="white" stroke-opacity="0.7" stroke-width="10"/>
<path d="M551.803 209.608L488.238 20.475C488.238 20.475 454.133 14.1608 434.02 20.475C417.955 25.5183 397.563 42.7785 397.563 42.7785L462.063 226.559L500.39 201.579L551.803 209.608Z" fill="white" fill-opacity="0.7" stroke="white"/>
</svg>
